<?xml version="1.0" encoding="utf-8"?>
<!-- Generator: Adobe Illustrator 25.3.1, SVG Export Plug-In . SVG Version: 6.00 Build 0)  -->
<svg version="1.1" xmlns="http://www.w3.org/2000/svg" xmlns:xlink="http://www.w3.org/1999/xlink" x="0px" y="0px"
	 viewBox="0 0 1331 354" style="enable-background:new 0 0 1331 354;" xml:space="preserve">
<style type="text/css">
	.st0{display:none;}
	.st1{display:inline;}
	.st2{fill:none;stroke:#000000;stroke-width:10;stroke-miterlimit:10;}
</style>
<g id="Ebene_1" class="st0">
	<g class="st1">
		<path d="M179.5,67.8l-68.6,150.3H93L24.7,67.8h42.7l34.3,80.6l34.4-80.6H179.5z"/>
	</g>
</g>
<g id="Ebene_2">
	<g>
		<path d="M210.8,293.5L151,203.7v89.8H88.4V57.3H151v88l54.8-88h72.1l-72.4,115.1l81.3,121H210.8z"/>
	</g>
	<ellipse class="st2" cx="182.8" cy="179.8" rx="163.8" ry="162.5"/>
	<g>
		<path d="M392.9,167.2v30.8h54.3v31.5h-54.3V262h63.3v31.4h-94.9V136h94.9v31.2H392.9z"/>
		<path d="M643.7,132.1v161.3H612v-68.6l-45.3,65.9h-0.2l-45.4-65.9v68.6h-31.6V132.1h1.8l75.4,104l75.3-104H643.7z"/>
		<path d="M776.6,271.5h-63l-10.1,22h-34.2l75.2-161.3h1l75.3,161.3h-34.3L776.6,271.5z M764.3,244.5l-19.1-42.1l-19.2,42.1H764.3z"
			/>
		<path d="M928.4,293.5L878.3,219v74.4h-31.6L846.6,136h51.4c29.4,0,53.5,22.7,53.5,51c0,20.2-12.2,37.9-29.1,43.8l44.7,62.6H928.4z
			 M878.2,206.9l20.3,0.1c10.7,0.1,20.3-8.6,20.3-19.8s-9.7-19.8-20.3-19.8h-20.3V206.9z"/>
		<path d="M1011.7,225.9L962.9,136h35.7l28.7,54.7l28.7-54.7h35.8l-48.8,89.8v67.6h-31.4V225.9z"/>
	</g>
</g>
<g id="Ebene_3" class="st0">
</g>
</svg>
